<svg width="150" height="150" viewBox="0 0 150 150" fill="none" xmlns="http://www.w3.org/2000/svg">
<path d="M75 0C33.645 0 0 33.645 0 75C0 116.355 33.645 150 75 150C116.355 150 150 116.355 150 75C150 33.645 116.355 0 75 0ZM75 135C41.9155 135 15 108.084 15 75C15 41.916 41.9155 15 75 15C108.085 15 135 41.916 135 75C135 108.084 108.084 135 75 135Z" fill="#F238C1"/>
<path d="M89.8301 61.8067H116.637L113.42 88.6133H86.6133L83.3071 115.42H56.5005L59.8067 88.6133H33L36.2168 61.8067H63.0234L66.3296 35H93.1362L89.8301 61.8067Z" fill="#F238C1"/>
</svg>
