<svg width="900" height="400" viewBox="0 0 900 400" fill="none" xmlns="http://www.w3.org/2000/svg">
<path d="M301.645 168.91C305.751 179.834 308 191.659 308 204C308 255.008 269.611 297.217 220.208 303.257L234.646 279.436C265.698 268.435 288 238.774 288 204C288 200.174 287.729 196.411 287.207 192.727L301.645 168.91ZM129.785 187.15C128.616 192.584 128 198.222 128 204C128 231.115 141.56 255.121 162.255 269.597L173.368 297.815C135.245 283.697 108 246.971 108 204C108 187.829 111.86 172.542 118.704 159.012L129.785 187.15ZM208 104C231.173 104 252.529 111.923 269.504 125.202L259.049 142.45C245.187 130.934 227.388 124 208 124C192.815 124 178.605 128.252 166.498 135.628L159.087 116.801C173.556 108.653 190.245 104 208 104Z" fill="#F238C1"/>
<path d="M194.642 330L108 110H147.812L203.042 250.29L288.074 110H328L194.642 330Z" fill="#F238C1"/>
<path d="M693.245 44.5327C787.829 44.5327 864.771 116.834 864.771 205.714C864.771 294.594 787.829 366.895 693.245 366.895C626.154 366.895 564.841 329.672 537.066 272.056C531.359 260.218 518.803 252.617 504.979 252.617H395.021C381.183 252.617 368.641 260.218 362.934 272.056C335.159 329.672 273.86 366.895 206.755 366.895C112.171 366.895 35.2295 294.594 35.2295 205.714C35.2295 116.834 112.171 44.5327 206.755 44.5327H693.245ZM693.245 11.4278H206.755C92.5689 11.4278 0 98.4143 0 205.714C0 313.014 92.5689 400 206.755 400C290.559 400 362.553 353.057 395.021 285.709H504.979C537.447 353.057 609.441 400 693.245 400C807.431 400 900 313.014 900 205.714C900 98.4143 807.431 11.4278 693.245 11.4278Z" fill="#F238C1"/>
<path d="M693.245 79.9946C619.362 79.9946 559.458 136.273 559.458 205.714C559.458 275.155 619.348 331.433 693.245 331.433C767.129 331.433 827.033 275.155 827.033 205.714C827.033 136.273 767.129 79.9946 693.245 79.9946ZM632.425 228.569C618.996 228.569 608.103 218.333 608.103 205.714C608.103 193.094 618.996 182.858 632.425 182.858C645.855 182.858 656.748 193.094 656.748 205.714C656.748 218.333 645.869 228.569 632.425 228.569ZM693.245 285.722C679.816 285.722 668.923 275.486 668.923 262.866C668.923 250.247 679.816 240.011 693.245 240.011C706.675 240.011 717.568 250.247 717.568 262.866C717.568 275.486 706.675 285.722 693.245 285.722ZM693.245 171.43C679.816 171.43 668.923 161.194 668.923 148.575C668.923 135.955 679.816 125.719 693.245 125.719C706.675 125.719 717.568 135.955 717.568 148.575C717.568 161.194 706.675 171.43 693.245 171.43ZM754.051 228.569C740.622 228.569 729.729 218.333 729.729 205.714C729.729 193.094 740.622 182.858 754.051 182.858C767.481 182.858 778.374 193.094 778.374 205.714C778.374 218.333 767.481 228.569 754.051 228.569Z" fill="#F238C1"/>
<path d="M452.515 213.792C447.766 209.329 447.766 202.086 452.515 197.623L482.925 169.047C487.674 164.584 495.383 164.584 500.131 169.047C504.88 173.51 504.88 180.753 500.131 185.215L469.721 213.792C464.972 218.254 457.264 218.254 452.515 213.792Z" fill="#F238C1"/>
<path d="M380.591 213.792C375.842 209.329 375.842 202.086 380.591 197.623L411.001 169.047C415.75 164.584 423.458 164.584 428.207 169.047C432.956 173.51 432.956 180.753 428.207 185.215L397.797 213.792C393.034 218.254 385.34 218.254 380.591 213.792Z" fill="#F238C1"/>
<path d="M304.058 0H194.593C181.164 0 170.271 10.236 170.271 22.8556H328.381C328.381 10.236 317.488 0 304.058 0Z" fill="#F238C1"/>
<path d="M705.407 0H595.942C582.512 0 571.619 10.236 571.619 22.8556H729.729C729.729 10.236 718.836 0 705.407 0Z" fill="#F238C1"/>
</svg>
